<svg xmlns="http://www.w3.org/2000/svg" width="65.1" height="65.1" viewBox="0 0 65.1 65.1" preserveAspectRatio="xMidYMid meet"><path d="M32.6 1.1C49.9 1.1 64 15.2 64 32.6 64 49.9 49.9 64 32.6 64S1.1 49.9 1.1 32.6c0-17.4 14.1-31.5 31.5-31.5m0 58c14.7 0 26.6-11.9 26.6-26.6S47.2 6 32.6 6 6 17.9 6 32.6c0 14.6 11.9 26.5 26.6 26.5m0-59.1C14.6 0 0 14.6 0 32.6s14.6 32.6 32.6 32.6 32.6-14.6 32.6-32.6C65.1 14.6 50.5 0 32.6 0zm0 58c-14 0-25.5-11.4-25.5-25.5S18.5 7.1 32.6 7.1c14 0 25.5 11.4 25.5 25.5S46.6 58 32.6 58zm22.1-44.6c-.2 0-.3-.1-.4-.2-4.9-5.6-12-9.1-19.5-9.6-.3 0-.5-.3-.5-.6s.3-.5.6-.5c7.7.5 15.1 4.1 20.2 9.9.2.2.2.6-.1.8 0 .1-.2.2-.3.2zm6.6 13.4c-.3 0-.5-.2-.5-.4-.1-.8-.3-1.4-.5-2-.7-2.7-1.8-5.2-3.3-7.6-.2-.3-.1-.6.2-.8.3-.2.6-.1.8.2 1.6 2.5 2.7 5.1 3.5 7.9.2.6.3 1.3.5 2.1.1.3-.1.6-.4.6h-.3zM32.6 52.1c.4 0 .7.3.7.7v2.8c0 .4-.3.7-.7.7-.4 0-.7-.3-.7-.7v-2.8c0-.3.3-.7.7-.7zm0-43.3c.4 0 .7.3.7.7v2.8c0 .4-.3.7-.7.7-.4 0-.7-.3-.7-.7V9.5c0-.4.3-.7.7-.7zm19.5 23.8c0-.4.3-.7.7-.7h2.8c.4 0 .7.3.7.7 0 .4-.3.7-.7.7h-2.8c-.3 0-.7-.3-.7-.7zm-43.3 0c0-.4.3-.7.7-.7h2.8c.4 0 .7.3.7.7 0 .4-.3.7-.7.7H9.5c-.4 0-.7-.3-.7-.7zm14 16.9c.3.2.4.6.3 1l-1.4 2.4c-.2.3-.6.4-1 .3-.3-.2-.4-.6-.3-1l1.4-2.4c.2-.4.6-.5 1-.3zM44.5 12c.3.2.4.6.3 1l-1.4 2.4c-.2.3-.6.4-1 .3-.3-.2-.4-.6-.3-1l1.4-2.4c.2-.4.6-.5 1-.3zM15.6 42.4c.2.3.1.8-.3 1l-2.4 1.4c-.3.2-.8.1-1-.3-.2-.3-.1-.8.3-1l2.4-1.4c.4-.2.8-.1 1 .3zm37.6-21.7c.2.3.1.8-.3 1L50.5 23c-.3.2-.8.1-1-.3-.2-.3-.1-.8.3-1l2.4-1.4c.3-.1.8 0 1 .4zM42.4 49.5c.3-.2.8-.1 1 .3l1.4 2.4c.2.3.1.8-.3 1-.3.2-.8.1-1-.3l-1.4-2.4c-.2-.4-.1-.8.3-1zM20.7 12c.3-.2.8-.1 1 .3l1.4 2.4c.2.3.1.8-.3 1-.3.2-.8.1-1-.3L20.4 13c-.2-.4-.1-.8.3-1zm28.8 30.4c.2-.3.6-.4 1-.3l2.4 1.4c.3.2.4.6.3 1-.2.3-.6.4-1 .3l-2.4-1.4c-.4-.3-.5-.7-.3-1zM12 20.7c.2-.3.6-.4 1-.3l2.4 1.4c.3.2.4.6.3 1-.2.3-.6.4-1 .3l-2.4-1.4c-.4-.3-.5-.7-.3-1zm36.1 3.1c.4.7.2 1.5-.5 1.9l-14.5 8.4c-.7.4-1.5.2-1.9-.5-.4-.7-.2-1.5.5-1.9l14.5-8.4c.7-.3 1.5-.1 1.9.5zm-14.6 9.9c-.4.7-1.2.9-1.9.5l-7.9-4.5c-.7-.4-.9-1.2-.5-1.9s1.2-.9 1.9-.5l7.9 4.5c.7.3.9 1.2.5 1.9z" fill="#414141"/></svg>
