<?xml version="1.0" encoding="UTF-8" standalone="no"?>
<svg
   xmlns:dc="http://purl.org/dc/elements/1.1/"
   xmlns:cc="http://creativecommons.org/ns#"
   xmlns:rdf="http://www.w3.org/1999/02/22-rdf-syntax-ns#"
   xmlns:svg="http://www.w3.org/2000/svg"
   xmlns="http://www.w3.org/2000/svg"
   version="1.1"
   id="svg4240"
   viewBox="0 0 299.99999 52.237483"
   height="14.742579mm"
   width="84.666664mm">
  <defs
     id="defs4242" />
  <metadata
     id="metadata4245">
    <rdf:RDF>
      <cc:Work
         rdf:about="">
        <dc:format>image/svg+xml</dc:format>
        <dc:type
           rdf:resource="http://purl.org/dc/dcmitype/StillImage" />
        <dc:title></dc:title>
      </cc:Work>
    </rdf:RDF>
  </metadata>
  <g
     transform="translate(144.28571,-917.67203)"
     id="layer1">
    <g
       transform="matrix(1.0048756,0,0,1.0048756,-144.28575,917.67202)"
       id="g4217">
      <path
         id="path4618"
         style="fill:#000000;fill-opacity:1;fill-rule:nonzero;stroke:none"
         d="m 88.923605,21.031855 c -1.361934,0.952073 -3.778406,1.425974 -7.266493,1.425974 l -12.880734,0 0,-12.5690682 12.880734,0 c 3.556397,0 5.998486,0.4696322 7.317725,1.4088972 1.327779,0.939264 1.989534,2.553092 1.989534,4.845751 0,2.309738 -0.678832,3.936373 -2.040766,4.888446 m 2.582978,9.034018 c 3.266079,-0.700179 5.75513,-2.258504 7.497039,-4.683515 1.733368,-2.42501 2.595788,-5.5502 2.595788,-9.379838 0,-5.161686 -1.40463,-8.9571694 -4.209615,-11.38218 C 94.58054,2.1995989 90.161726,0.98709359 84.133355,0.98709359 l -25.851125,0 0,49.94326241 10.494148,0 0,-19.639169 12.368408,0 11.006474,19.639169 11.83046,0 -12.475137,-20.864483 z" />
      <path
         id="path4622"
         style="fill:#000000;fill-opacity:1;fill-rule:nonzero;stroke:none"
         d="m 128.56313,50.93121 17.76918,0 0,-8.701006 -17.26112,0 c -4.5042,0 -7.67635,-1.118579 -9.51219,-3.364275 -1.82729,-2.241427 -2.74948,-6.100951 -2.74948,-11.582841 0,-6.322959 0.95207,-10.861315 2.86902,-13.623607 1.91269,-2.762292 5.05069,-4.1455722 9.39265,-4.1455722 l 17.26112,0 0,-8.52596133 -17.46178,0 c -8.04352,0 -13.97797,2.10053733 -17.79906,6.30161193 -3.83391,4.2010746 -5.7466,10.7204246 -5.7466,19.5537826 0,4.551164 0.63614,8.46192 1.92123,11.740808 1.27654,3.270348 3.19777,5.921636 5.75513,7.962402 1.97672,1.588211 4.07726,2.711059 6.32296,3.381353 2.23715,0.666024 5.31965,1.003305 9.23894,1.003305" />
      <path
         id="path4626"
         style="fill:#000000;fill-opacity:1;fill-rule:nonzero;stroke:none"
         d="m 192.43743,50.93121 0,-49.94326253 -10.50268,0 0,20.24969153 -19.26774,0 0,-20.24969153 -10.48987,0 0,49.94326253 10.48987,0 0,-20.860214 19.26774,0 0,20.860214 10.50268,0 z" />
      <path
         id="path4630"
         style="fill:#000000;fill-opacity:1;fill-rule:nonzero;stroke:none"
         d="m 233.29756,39.090499 c -2.203,2.83914 -5.59289,4.265115 -10.16113,4.265115 -4.64082,0 -8.03498,-1.438783 -10.19956,-4.29927 -2.16031,-2.864758 -3.24047,-7.377497 -3.24047,-13.53822 0,-5.68682 1.11431,-9.934858 3.34293,-12.744113 2.22862,-2.8049858 5.59717,-4.2096134 10.0971,-4.2096134 4.56824,0 7.95813,1.4131664 10.16113,4.2480374 2.20301,2.826333 3.30878,7.210991 3.30878,13.145436 0,5.913098 -1.10577,10.289217 -3.30878,13.132628 M 241.92599,6.3571257 C 237.86581,2.1218961 231.59835,1.1837506e-5 223.13643,1.1837506e-5 c -8.40215,0 -14.65253,2.096267862494 -18.75968,6.288803762494 -4.10715,4.1882664 -6.16499,10.5795354 -6.16499,19.1567294 0,9.132214 2.01515,15.835148 6.04972,20.117341 4.02176,4.277923 10.3191,6.421155 18.87495,6.421155 8.46192,0 14.72938,-2.130423 18.78956,-6.391269 4.06445,-4.252308 6.09668,-10.797274 6.09668,-19.634901 0,-8.833357 -2.03223,-15.365516 -6.09668,-19.6007453" />
      <path
         id="path4634"
         style="fill:#000000;fill-opacity:1;fill-rule:nonzero;stroke:none"
         d="m 255.112,27.163101 c 2.65983,2.296929 6.86517,3.453933 12.62457,3.453933 l 12.39403,0 c 2.71959,0 4.64509,0.435477 5.7594,1.31924 1.12284,0.888032 1.68213,2.365239 1.68213,4.448698 0,2.01515 -0.60625,3.466741 -1.83583,4.333426 -1.22105,0.875224 -3.32585,1.310701 -6.31869,1.310701 l -26.29514,0 0,8.901667 27.9602,0 c 6.0241,0 10.44291,-1.203966 13.25644,-3.620438 2.80072,-2.412202 4.20534,-6.190608 4.20534,-11.330947 0,-5.072029 -1.21677,-8.696737 -3.65032,-10.874123 -2.43355,-2.168848 -6.52789,-3.257541 -12.28302,-3.257541 l -13.89258,0 c -2.19446,0 -3.85525,-0.452554 -4.96102,-1.361933 -1.11431,-0.90511 -1.66079,-2.262774 -1.66079,-4.072993 0,-2.267044 0.64894,-3.919296 1.94683,-4.961026 1.30217,-1.045999 3.35147,-1.5668637 6.13511,-1.5668637 l 25.95359,0 0,-8.89739785 -27.48203,0 c -6.09668,0 -10.54111,1.22104405 -13.33756,3.66313215 -2.79217,2.4506268 -4.1968,6.3229584 -4.1968,11.6255344 0,4.965295 1.32778,8.590002 3.99614,10.886931" />
      <path
         id="path4638"
         style="fill:#000000;fill-opacity:1;fill-rule:nonzero;stroke:none"
         d="m 40.166411,14.228573 1.87853,-0.01708 -0.06421,15.929074 -14.375018,0 12.560529,-15.911997 z m -19.344582,24.809395 21.184687,0 -0.04269,11.898775 10.835699,0 -0.145159,-49.95180118 -14.451868,0 L 3.951006e-5,50.936743 l 11.57430248994,0 9.247487,-11.898775 z" />
    </g>
  </g>
</svg>
