<?xml version="1.0" encoding="UTF-8" standalone="no"?>
<!-- Created with Inkscape (http://www.inkscape.org/) -->

<svg
   xmlns:dc="http://purl.org/dc/elements/1.1/"
   xmlns:cc="http://creativecommons.org/ns#"
   xmlns:rdf="http://www.w3.org/1999/02/22-rdf-syntax-ns#"
   xmlns:svg="http://www.w3.org/2000/svg"
   xmlns="http://www.w3.org/2000/svg"
   xmlns:sodipodi="http://sodipodi.sourceforge.net/DTD/sodipodi-0.dtd"
   xmlns:inkscape="http://www.inkscape.org/namespaces/inkscape"
   version="1.1"
   width="295"
   height="163.83144"
   id="svg2"
   xml:space="preserve"
   inkscape:version="0.47 r22583"
   sodipodi:docname="Htc_new_logo.svg"><metadata
     id="metadata22"><rdf:RDF><cc:Work
         rdf:about=""><dc:format>image/svg+xml</dc:format><dc:type
           rdf:resource="http://purl.org/dc/dcmitype/StillImage" /></cc:Work></rdf:RDF></metadata><sodipodi:namedview
     pagecolor="#ffffff"
     bordercolor="#666666"
     borderopacity="1"
     objecttolerance="10"
     gridtolerance="10"
     guidetolerance="10"
     inkscape:pageopacity="0"
     inkscape:pageshadow="2"
     inkscape:window-width="640"
     inkscape:window-height="481"
     id="namedview20"
     showgrid="false"
     inkscape:zoom="1.3485714"
     inkscape:cx="147.5"
     inkscape:cy="81.915719"
     inkscape:window-x="0"
     inkscape:window-y="0"
     inkscape:window-maximized="0"
     inkscape:current-layer="svg2" /><defs
     id="defs6"><inkscape:perspective
       sodipodi:type="inkscape:persp3d"
       inkscape:vp_x="0 : 87.5 : 1"
       inkscape:vp_y="0 : 1000 : 0"
       inkscape:vp_z="300 : 87.5 : 1"
       inkscape:persp3d-origin="150 : 58.333333 : 1"
       id="perspective24" /><clipPath
       id="clipPath18"><path
         d="M 0,0 360,0 360,360 0,360 0,0 z"
         id="path20" /></clipPath><clipPath
       id="clipPath34"><path
         d="m 289.631,22.252 45.354,0 0,25.188 -45.354,0 0,-25.188 z"
         id="path36" /></clipPath><clipPath
       id="clipPath46"><path
         d="m 289.631,22.252 45.354,0 0,25.188 -45.354,0 0,-25.188 z"
         id="path48" /></clipPath><clipPath
       id="clipPath58"><path
         d="m 87.874,92.126 190.078,0 0,164.409 -190.078,0 0,-164.409 z"
         id="path60" /></clipPath><clipPath
       id="clipPath66"><path
         d="m 87.874,92.126 190.077,0 0,164.409 -190.077,0 0,-164.409 z"
         id="path68" /></clipPath></defs><g
     transform="matrix(1.25,0,0,-1.25,-229.77835,197.23072)"
     id="g12"><g
       transform="matrix(1.5408393,0,0,1.5408393,-96.336841,-7.567328)"
       id="g2943"><path
         d="m 310.01178,71.441963 c -6.76421,-0.0439 -13.17045,-0.09793 -14.95691,0.06079 -3.61343,0.314064 -6.02802,2.677992 -6.30831,6.156343 -0.18911,2.282879 -0.18911,4.174022 -0.0101,5.973984 0.32757,3.387171 3.16091,6.612244 6.31844,6.767588 1.13131,0.06079 4.15714,0.05403 9.63807,0.03039 l 15.94976,-0.03039 0,6.615621 c 0,0 -12.70442,0.01351 -16.52385,0.03039 -5.12635,0.02364 -7.70641,0.02702 -9.3409,-0.03039 -3.59654,-0.138458 -6.60886,-1.418357 -8.94915,-3.795793 -2.21872,-2.245731 -3.54252,-5.818639 -3.73839,-9.435449 -0.11144,-1.951929 -0.14858,-4.501594 0,-6.017885 0.3681,-3.89035 1.62774,-6.943194 3.73839,-9.080861 2.25586,-2.296387 5.69031,-3.751891 8.95253,-3.795792 2.67799,-0.03377 25.86137,0 25.86137,0 l 0,6.612244 c 0,0 -7.04113,-0.02702 -10.63092,-0.06079"
         id="path38"
         style="fill:#8cc751;fill-opacity:1;fill-rule:nonzero;stroke:none" /><path
         d="m 238.00991,96.661697 0,-6.608867 15.73701,0 0,-25.047505 6.64264,0 0,25.047505 15.737,0 0,6.608867 -38.11665,0 z"
         id="path40"
         style="fill:#8cc751;fill-opacity:1;fill-rule:nonzero;stroke:none" /><path
         d="m 231.11062,84.163272 c -0.0473,3.5594 -1.30354,6.612244 -3.73838,9.080861 -2.53954,2.583435 -6.413,3.657334 -8.94916,3.792415 -2.20521,0.124951 -10.89433,0.08443 -12.93406,0 -2.87386,-0.121573 -4.96763,-0.979341 -6.01789,-1.762814 -0.0101,-0.0068 -0.0203,-0.0034 -0.0203,0.01351 l 0,12.025636 -6.64601,0 0,-42.422372 6.63588,0 c 0,0 -0.1317,17.364739 0.0169,19.255881 0.2634,3.360155 2.81307,6.001 6.06516,6.284671 2.60707,0.222885 10.43168,0.162098 12.88678,-0.0034 3.37029,-0.233015 5.85917,-2.867107 6.05504,-6.416375 0.0642,-1.306915 -0.003,-19.1208 -0.003,-19.1208 l 6.64939,0 c 0,0 0.0169,17.746344 0,19.272766"
         id="path50"
         style="fill:#8cc751;fill-opacity:1;fill-rule:nonzero;stroke:none" /><path
         d="m 329.53783,33.342199 c 1.37445,0.01351 2.65773,0.283671 2.65435,1.39134 0,0.189115 0.027,0.408622 -0.0507,0.658523 -0.18573,0.374852 -0.42888,0.354589 -0.67203,0.320819 l 0.0878,0.02026 c 0,0 -0.87128,-0.23977 -1.57708,-0.249901 l -0.0203,0 c -0.72607,0.02364 -0.93544,0.746326 -0.97259,1.543307 -0.0135,0.135082 -0.0169,0.280295 -0.0135,0.439016 0.0169,1.219111 0.39511,3.073106 0.64164,4.109857 0.0743,0.368098 0.29718,0.621376 0.72944,0.651769 2.09714,0.162098 4.70084,0.195868 4.64005,1.44875 0,0.0034 -0.003,0.01351 0,0.02026 -0.003,1.080653 -1.05701,1.320423 -1.87426,1.340685 -0.0304,0 -0.054,0 -0.0811,0 -0.32757,-0.0034 -2.19169,-0.212753 -2.19507,-0.212753 l -0.19587,-0.02364 0.0507,0.192492 c 0.19249,0.719309 0.38498,1.577077 0.77672,2.431468 0.0675,0.151967 0.10131,0.317442 0.10131,0.496425 0.007,0.378229 -0.13171,0.800359 -0.33771,1.114423 -0.19924,0.310688 -0.45927,0.506556 -0.65177,0.51331 l -0.027,0 c -0.39174,-0.0034 -0.76321,-0.263409 -1.1921,-0.948948 -0.55046,-0.918555 -0.85101,-2.141043 -1.43186,-3.508744 -0.0574,-0.199246 -0.22964,-0.347835 -0.54033,-0.371475 -2.28288,-0.351212 -2.59694,-1.17521 -2.61383,-1.739175 0,0 0,-0.01013 0,-0.02702 0.0203,-0.884784 0.41876,-1.175209 0.9118,-1.195472 0,0 0.003,0 0.007,0 0.003,0 0.007,0 0.007,0 0.15197,-0.0034 0.5741,0.155344 0.87128,0.162098 l 0.0338,0 c 0.0844,-0.0034 0.16547,-0.0068 0.24652,-0.05741 0.0878,-0.05403 0.12495,-0.162098 0.1182,-0.256655 0,-0.05066 -0.007,-0.108066 -0.0203,-0.178984 -0.18912,-0.783473 -0.50656,-2.735402 -0.52345,-3.795792 0,-0.101312 0,-0.192492 0.007,-0.276918 0.0473,-1.144816 0.28029,-2.265993 0.75646,-2.917762 0.54708,-0.712556 1.18534,-1.073899 2.25586,-1.094161 l 0.0608,0 c 0.0101,0 0.0236,0 0.0338,0 M 316.9928,40.66699 c -0.0439,-2.424714 -1.72904,-3.984907 -1.85737,-6.149589 -0.0101,-0.145213 -0.0169,-0.280295 -0.0203,-0.411999 0.0135,-0.631507 0.0844,-0.986096 0.89491,-1.178587 0.16886,-0.03715 0.32082,-0.05403 0.46266,-0.05741 0.94557,-0.01351 1.33731,0.702425 1.76619,1.614225 0.41538,0.894916 0.82737,1.948552 1.87426,2.387568 l 0.18236,0.07767 0.003,-0.205999 c 0.0135,-2.083634 1.24613,-3.133893 2.32003,-3.147401 0.88816,-0.0068 1.70541,0.655146 1.7358,2.174814 0.003,0.21613 -0.0101,0.449146 -0.0439,0.699047 -0.0473,0.03715 -0.0979,0.05065 -0.16885,0.05403 -0.22627,0.0068 -0.5302,-0.175606 -0.80712,-0.18236 -0.14859,-0.01013 -0.31744,0.118197 -0.34108,0.33095 0.007,0.439015 0.0338,0.925309 0.0405,1.411603 0.0101,0.742949 -0.0304,1.485897 -0.25328,2.016093 -0.22626,0.530195 -0.58761,0.861145 -1.32042,0.87803 -0.70918,0.01351 -1.29679,-0.526818 -1.58384,-0.807112 l -0.23301,-0.222885 0.003,0.320819 0.007,0.303933 c -0.0236,0.496425 -0.10807,0.658523 -0.38498,0.999604 -0.32082,0.280294 -0.65853,0.405245 -0.98272,0.411999 -0.50318,0.0068 -0.98947,-0.27354 -1.31029,-0.796981 0.0135,-0.175607 0.0169,-0.347836 0.0169,-0.520065 m -6.96683,-1.610848 c -0.0203,-0.0034 -0.69905,-2.188321 -1.84049,-2.282879 0,0 -0.79023,-0.128327 -0.77334,0.702425 -0.0203,0.516687 0.48967,1.337308 0.7497,1.681766 0.32082,0.411998 0.88816,1.154947 1.78983,1.30016 l 0.13509,0.02026 0.0203,-0.135081 c 0.0203,-0.124951 0.0304,-0.243147 0.0371,-0.35459 0.027,-0.577473 -0.11145,-0.921931 -0.1182,-0.932063 m 2.59019,2.924517 c -0.0507,0.543703 -0.99623,1.691897 -1.64462,1.624356 -0.0675,-0.0034 -0.12495,-0.01351 -0.18236,-0.03715 l -0.0203,-0.01013 c -2.24236,-0.574097 -5.68356,-3.52563 -5.49782,-7.074899 0.0169,-0.374851 0.0743,-0.759834 0.17898,-1.154948 0.22964,-0.827374 0.89492,-1.438619 2.15455,-1.384586 0.16548,0.0068 0.34446,0.03039 0.52344,0.06079 0.65515,0.178983 1.42511,0.621375 1.7797,1.124554 l 0.24653,0.344458 0,-0.425507 c 0,-0.03715 0,-0.07767 0,-0.111442 0.054,-1.060391 0.86452,-1.978946 1.6176,-1.945175 0.26003,0.01351 0.52344,0.131704 0.78009,0.411999 0.0878,0.09456 0.0946,0.219507 0.11145,0.361343 0.15534,1.256259 0.14859,2.380813 0.0979,3.447958 -0.0439,0.905046 -0.12495,1.772946 -0.16547,2.630714 -0.0338,0.715932 -0.0439,1.431865 0.0203,2.137666 m -13.22787,-8.814074 0.003,0 c 0.78347,-0.0068 1.38121,0.327573 1.68177,1.036751 0.13845,0.337704 0.19924,1.30016 0.70242,2.630714 1.10429,2.157929 2.59357,6.203622 2.59357,6.288048 0.23639,1.333931 -0.65177,2.036355 -1.74931,1.874258 -1.10091,-0.158721 -1.09754,-1.404849 -1.32718,-2.671239 -0.48291,-2.539534 -2.60032,-4.910216 -2.97179,-7.399094 l 0,-0.03039 c -0.0135,-0.851014 0.40862,-1.577077 1.06039,-1.729044 l 0.007,0 z m -7.53755,17.04392 c -2.16131,-3.454712 -4.765,-9.614432 -4.84605,-15.639072 -0.003,-0.145212 -0.003,-0.293802 -0.003,-0.445769 0.003,-0.607867 0.35797,-1.02662 1.23262,-1.080653 0.0236,0 0.0473,0 0.0709,-0.0034 0.77334,0 0.92531,0.496425 1.09078,0.773342 0.1182,0.182361 0.37148,1.661504 0.52007,3.049468 l 0,0 0.003,0.01351 c 0.5741,2.732025 1.32718,7.02762 2.92452,9.837317 0.50318,0.867899 1.43186,1.63111 1.43186,2.519272 0,0.06079 -0.003,0.118196 -0.0101,0.175606 -0.0811,0.732817 -0.7936,1.225865 -1.46901,1.232619 -0.37147,0.0068 -0.71931,-0.131704 -0.94557,-0.432261 m 6.48392,1.053637 c -1.58721,-5.231035 -4.46783,-10.526234 -5.02504,-16.858184 0,-0.594359 0.17898,-1.070521 0.80374,-1.195472 0.0709,-0.0068 0.14521,-0.01351 0.21613,-0.01688 0.50318,-0.0068 0.99622,0.175606 1.26976,0.520064 0.73958,0.918555 0.43227,1.7797 0.70918,3.120385 0.40862,1.914782 1.42849,5.09933 1.42849,5.102707 0,0.0034 1.6176,4.981134 2.96504,7.709783 0.0946,0.209376 0.22626,0.601113 0.22964,0.996226 0.003,0.459278 -0.13508,0.894916 -0.65515,1.144817 l -0.003,0.0034 c -0.29043,0.145213 -0.55384,0.202622 -0.78348,0.205999 -0.57747,0.0068 -0.98609,-0.341081 -1.15494,-0.732817 m 7.36194,0.162098 c -0.0101,-0.888162 0.60787,-1.826979 1.53318,-1.840487 0.28705,-0.0068 0.60787,0.07429 0.9557,0.270163 0.45928,0.33095 0.60449,0.712555 0.61125,1.100915 0.0169,0.712555 -0.52007,1.458881 -0.61125,1.546684 -0.1317,0.135082 -0.40187,0.324196 -1.00636,0.334327 -0.0878,0 -0.18573,-0.0034 -0.28704,-0.01013 -0.003,0 -0.007,0 -0.0101,0 l 0,0 c 0,0 0,0 0,0 l 0,0 c -0.83412,-0.14859 -1.16845,-0.736195 -1.18534,-1.401471 m -23.30495,-1.887766 c -0.0101,-0.861145 0.69567,-1.793208 1.53993,-1.810093 0.0135,0 0.0203,0 0.0236,0 0.94557,0.0068 1.43524,0.756457 1.45213,1.550061 0.003,0.807113 -0.47279,1.593963 -1.53656,1.614225 -0.0642,0 -0.1317,0 -0.20599,-0.01013 -0.92869,-0.189114 -1.25626,-0.739572 -1.27315,-1.344062 m 1.24613,-6.622375 c -0.31069,0 -0.58761,-0.138459 -0.79361,-0.54708 -0.47616,-1.975569 -1.94855,-4.498218 -1.98232,-7.041129 -0.007,-0.320818 0.0135,-0.641637 0.0608,-0.962456 0.0506,-0.354589 0.27354,-1.127931 1.08741,-1.131308 0.0338,0 0.0642,0 0.0979,0 1.00298,0.07429 1.15495,0.30731 1.18196,0.726063 -0.0675,0.280294 -0.0946,0.557212 -0.0912,0.830752 0.0439,2.215338 2.04987,4.190907 2.06,6.159721 0,0.145212 -0.007,0.290425 -0.027,0.435638 -0.0844,0.705801 -0.90842,1.523045 -1.5737,1.529799 l -0.0203,0 z m -11.32659,-9.249712 0,0 c 1.58383,-0.07429 1.79996,2.904254 2.30314,3.903858 1.09416,2.059994 2.5294,2.617206 4.23143,3.04609 0,0 0.76996,0.303933 0.76659,1.114423 0.003,0.06416 -0.003,0.131705 -0.0101,0.199245 -0.14184,0.817244 -0.33771,0.955703 -0.86115,1.046883 -0.1756,0.02702 -0.34783,0.03715 -0.52344,0.04052 -1.69865,0.03039 -3.3973,-0.972587 -3.98153,-2.026224 l -0.21275,-0.371474 -0.0405,0.425507 c -0.0405,0.594359 0.0169,2.039732 -0.80711,2.016093 -0.003,0 -0.0101,0 -0.027,0 -1.10091,0.02702 -1.39809,-1.148194 -1.49603,-1.536553 -0.23639,-1.550062 -0.42213,-3.204811 -0.44239,-4.741364 -0.0135,-0.948949 0.0371,-1.857372 0.17561,-2.654354 0.26341,-0.4559 0.86452,-0.462654 0.92531,-0.462654 m -7.50041,2.927893 c -0.80373,-0.621375 -1.68176,-1.016489 -2.01609,-1.023243 l -0.14521,0.0034 -0.0203,0.378229 c 0,1.053636 0.20938,1.350816 0.59436,1.850618 0.44915,0.58085 1.39134,1.256258 2.06337,1.256258 0.13846,-0.0034 0.40525,-0.03715 0.52682,-0.104688 0.16548,-0.08105 0.24315,-0.381605 0.2364,-0.550457 -0.0203,-0.53695 -0.58423,-1.283275 -1.23938,-1.810094 m 2.06675,4.731233 c -0.42888,0.14859 -0.82062,0.212754 -1.17859,0.216131 -1.5433,0.02702 -2.58343,-1.094161 -3.64382,-2.056618 l -0.31407,-0.287048 0.0912,0.418753 c 0.79361,3.610056 1.26639,7.098538 2.01947,10.894331 0.0101,0.06754 0.0304,0.205999 0.0304,0.374851 0,0.624753 -0.15197,1.614225 -1.26302,1.671635 -0.0371,0.0034 -0.0777,0.0034 -0.11819,0.0034 -0.88141,0.01351 -1.27315,-0.658523 -1.46564,-1.276521 -0.31744,-1.070522 -0.3377,-2.505764 -0.50993,-3.920743 -0.54371,-4.228054 -1.63787,-9.337516 -2.13767,-13.140063 0.18236,-0.894915 0.68554,-0.607867 1.45213,-0.9118 l -0.003,-0.0034 c 0.0574,-0.02026 0.0574,-0.0439 0.0675,-0.05065 0.007,-0.01351 0.007,-0.01689 0.0101,-0.02364 0.003,-0.0068 0.003,-0.01013 0.003,-0.01351 0.003,-0.01013 0.007,-0.01688 0.0101,-0.02702 0.003,-0.01689 0.0135,-0.04052 0.0236,-0.07092 0.027,-0.05741 0.0642,-0.138458 0.13171,-0.222884 0.12832,-0.162098 0.34783,-0.543704 0.76658,-0.398491 3.94439,1.188718 5.66668,1.92829 7.07828,4.126743 0.29718,0.503179 0.43901,1.097538 0.44577,1.698651 0.0236,1.330553 -0.62138,2.661107 -1.49603,2.998811 m -34.03718,-17.64841 c 0,-0.138459 0.0203,-0.283672 0.054,-0.425507 0.17898,-0.817244 1.40147,-0.908424 1.40485,-0.908424 0.30393,-0.02364 0.60449,-0.03377 0.90167,-0.03377 6.7946,0 11.00577,5.855787 11.00915,12.994849 0.003,1.20898 -0.1182,2.455108 -0.37148,3.711367 l 0,0.01351 c -0.007,0 -0.0473,0.368097 -0.26678,0.580851 -0.27017,0.219508 -0.48968,0.297179 -0.67879,0.297179 -0.47279,0.01351 -0.88816,-0.557211 -1.2495,-1.232619 -0.37486,-0.668654 -0.66528,-1.391341 -1.12794,-1.624356 -0.34108,-0.151967 -0.62475,-0.229639 -0.86789,-0.229639 -0.79023,0.01351 -0.98948,0.780096 -0.99285,1.678389 0,0.678785 0.10806,1.496028 0.20262,2.296387 0.007,0.05066 0.0101,0.104688 0.0101,0.158721 -0.0135,0.368097 -0.1182,0.881407 -0.82738,0.945571 -0.027,0 -0.054,0 -0.0844,0 -0.91856,-0.0034 -1.1921,-0.648392 -1.31367,-1.114423 -0.13508,-0.563966 -0.46941,-1.431865 -0.46941,-2.664485 0,-1.229242 0.24315,-2.168059 0.24315,-2.168059 0.34446,-1.14144 0.88141,-1.570324 1.48927,-1.853995 0.29043,-0.111442 0.59098,-0.162098 0.88816,-0.162098 1.06377,-0.118196 2.29639,0.341081 2.3977,0.756457 -0.11819,-1.306915 -0.23301,-2.505764 -0.53695,-3.711367 -0.46603,-1.607471 -1.03337,-2.444977 -1.46226,-2.998811 -1.62097,-1.891143 -4.18077,-3.214942 -6.94319,-3.214942 -0.0946,0 -0.18911,0 -0.26679,0.0034 -0.89153,-0.08443 -1.12793,-0.547081 -1.14143,-1.094161 m 2.76917,25.361569 c -0.57072,-0.334327 -0.65515,-0.93544 -0.92869,-1.732421 -0.1621,-0.455901 -2.41796,-11.10033 -2.4112,-12.393737 0,0 0,-0.0068 0,-0.02026 -0.10469,-1.533176 0.92193,-1.958683 0.92193,-1.958683 0.11482,-0.02364 0.48629,-0.03377 0.48629,-0.03377 0.83413,-0.01351 1.17859,0.908423 1.3238,1.404848 0.31744,1.127932 0.30056,2.475371 0.56397,3.85658 0.39511,2.070125 1.8236,7.878634 1.92491,8.729648 0.0473,0.374851 0.11144,0.688916 0.11144,1.016489 0.0709,0.864522 -0.74295,1.367701 -1.21236,1.371078 -0.24314,0 -0.50993,-0.08105 -0.78009,-0.23977 m -9.70261,-15.52767 c 0.90505,0.03377 1.47577,0.347835 1.48252,1.17521 l 0,0.03377 c -0.007,0.452524 -0.31744,0.739572 -0.72268,1.063768 -0.2499,0.205999 -0.43564,0.395113 -0.48292,1.202226 -0.007,0.114819 -0.0135,0.243147 -0.0135,0.384982 0.003,1.340685 0.37148,3.866711 0.61125,4.930479 0.0642,0.368097 0.27691,0.675408 0.72944,0.668654 0.32419,0.0034 0.88816,0.03715 1.15832,0.0439 0.29043,0.0034 1.06715,-0.02026 1.76282,0.138459 0.7058,0.165475 1.26301,0.482917 1.25963,1.148193 0,0.0034 0,0.01689 0,0.02364 -0.027,1.111046 -0.89829,1.15157 -1.70203,1.165078 -0.0304,0 -2.24573,-0.138458 -2.24573,-0.138458 l 0.0642,0.192491 c 0.22626,0.685539 0.50655,1.607471 0.96245,2.485501 0.19249,0.310688 0.85439,2.583436 -0.99622,2.583436 -0.52682,-0.07092 -1.01312,-0.628129 -1.48928,-1.647996 -0.56059,-1.246127 -0.57747,-1.783077 -1.24275,-3.377039 -0.0473,-0.185738 -0.22288,-0.391737 -0.55721,-0.378229 -0.61462,-0.01013 -1.06377,-0.09456 -1.51967,-0.09456 -0.15197,0 -0.3377,-0.02364 -0.50318,0.0034 -0.33095,0 -0.67878,-0.243147 -0.67878,-0.243147 -0.1182,-0.145213 -0.33433,-0.246524 -0.39849,-0.803735 l 0,-0.03039 c 0.0135,-0.891538 0.36472,-1.398094 0.79698,-1.39134 0,0 1.57707,-0.0439 1.59396,-0.0439 0.0811,-0.0034 0.1621,-0.0068 0.24315,-0.05741 0.081,-0.05741 0.11819,-0.162098 0.11482,-0.249901 0,-0.05403 -0.0101,-0.111443 -0.0236,-0.18236 -0.18912,-0.840883 -0.59774,-3.772154 -0.59774,-4.781889 0,-0.02702 0,-0.04728 0.003,-0.06754 0.0405,-1.816847 0.57072,-3.768776 2.34029,-3.755268 0.007,0 0.0169,0.0034 0.0236,0.0034 0.0101,0 0.0203,-0.0034 0.027,-0.0034 m -10.48571,5.480936 0.0169,0.118196 c 0.18236,1.073899 1.31367,1.955306 1.90465,1.975568 0.0101,0 0.027,0 0.0473,-0.0034 0.31406,-0.03377 0.48291,-0.303933 0.48291,-0.540326 0,-0.01351 0,-0.02364 0,-0.04053 0,-0.948948 -1.22248,-1.529799 -1.91478,-1.560192 -0.0608,0 -0.36809,0.0068 -0.41875,0.01689 l -0.1182,0.03377 z m 5.45392,-1.627734 c -0.0743,0.135082 -0.19249,0.222885 -0.2938,0.222885 -0.0811,0 -0.21275,0.01013 -0.39511,-0.172229 -0.79361,-0.78685 -1.38121,-1.806716 -2.73878,-1.810093 0,0 -0.0101,0 -0.027,-0.0034 -0.95908,-0.01013 -1.29003,0.479539 -1.46563,1.30016 l -0.0304,0.121573 0.12158,0.04052 c 0.86789,0.135081 3.65395,0.986096 3.63369,3.214942 0,0.341081 -0.0608,0.719309 -0.20262,1.138062 -0.31407,0.921932 -1.09416,1.306915 -2.01947,1.310292 -1.60747,0.0068 -3.25885,-1.107669 -3.6776,-2.877238 l -0.0169,-0.209377 -0.18236,0.101311 c -0.14522,0.07767 -0.2803,0.111443 -0.412,0.111443 -0.54033,0 -1.01987,-0.621376 -1.02325,-1.195472 0.003,-0.04728 0.003,-0.09118 0.0101,-0.131705 0.13508,-0.75308 0.47278,-1.195472 1.01648,-1.519668 l 0.0675,-0.03715 0,-0.08105 c 0,-0.02702 -0.003,-0.05066 -0.003,-0.07429 0.0101,-2.428092 1.62773,-3.447958 3.41419,-3.458089 2.05324,0.0034 4.24831,1.398095 4.29559,3.694482 0,0 0,0.189114 -0.0709,0.314064 M 184.76071,36.02019 c 0,0 -0.24315,0.03377 -0.33771,0.104688 -0.27691,0.199245 -0.39849,0.499802 -0.39511,0.82062 0.0135,1.171833 1.40485,2.853599 2.29301,3.751892 0.83075,0.827375 1.24951,1.15157 1.67164,1.161702 0.14521,0 0.27691,-0.04728 0.40186,-0.118197 0.20263,-0.108065 0.2803,-0.33095 0.2803,-0.57072 -0.0439,-1.48252 -2.57668,-5.085822 -3.91399,-5.149985 m 6.94319,6.244146 c 0.003,0.496425 -0.18574,0.965834 -0.18911,0.975965 -0.62138,0.975964 -1.42174,1.371078 -2.32003,1.374455 -1.55344,0.0034 -3.41419,-1.242751 -4.86631,-2.95491 -1.45888,-1.708782 -2.50914,-3.870088 -2.50577,-5.639656 0,-1.121178 0.40863,-2.070126 1.38121,-2.694878 0.29718,-0.141836 0.59098,-0.209377 0.88141,-0.209377 1.58045,-0.01351 3.11701,1.972192 4.07946,2.836714 l 0.21613,0.185737 -0.0101,-0.283671 c -0.16885,-4.484709 -1.63786,-12.272163 -1.63786,-12.305934 0.003,-0.793604 0.54708,-1.296783 1.15157,-1.296783 0.24315,0 0.50318,0.08105 0.73957,0.263409 1.22249,1.198849 1.14144,3.569531 1.4859,5.862541 0.56059,3.67422 0.3242,7.672635 1.05026,11.090199 0.22626,1.05026 0.47954,2.114027 0.51331,2.458485 0,0 0.0304,0.229639 0.0304,0.337704 m 8.64522,-6.156343 c 0.38499,-1.759438 0.45928,-2.806321 2.73203,-3.137271 l 0,0 c 0.17223,-0.0034 0.42888,0.124951 0.62813,0.347836 0.20262,0.219507 0.34446,0.523441 0.34446,0.847637 0,0.09793 -0.0101,0.192491 -0.0338,0.280294 -0.23302,0.675408 -0.65853,0.712555 -0.9422,1.472389 -0.17223,0.476163 -0.22626,1.009735 -0.22626,1.556816 0,1.17521 0.25666,2.431468 0.25328,3.37704 -0.0236,0.952325 -0.20262,1.485897 -1.12456,1.499405 -0.054,0 -0.11481,-0.0034 -0.17898,-0.01013 -0.027,0.0068 -0.37823,-0.114819 -0.61462,-0.536949 -1.06377,-1.826979 -2.18157,-4.417168 -4.07946,-4.596151 -0.34446,0.05403 -0.46941,0.388359 -0.45928,0.749702 0.003,1.178587 1.00298,3.52563 1.4859,4.930479 0.0405,0.151966 0.0574,0.293802 0.0574,0.425507 0,0.790227 -0.84764,1.279898 -1.39134,1.276521 -0.54709,-0.0034 -1.11105,-0.270163 -1.44538,-0.905047 -0.4559,-0.84426 -1.10767,-3.505367 -1.10429,-5.825394 0,-1.070521 0.13846,-2.070125 0.47954,-2.786058 0.35121,-0.715932 0.8679,-1.141439 1.6919,-1.144816 0.0439,0 0.0878,0 0.1317,0.0034 1.55006,0.07429 2.50914,1.499406 3.58642,2.25924 l 0.16547,0.114819 0.0439,-0.199245 z m 7.04113,-2.387568 c 0.53357,0 0.93544,0.131705 1.02325,0.469409 0.44239,2.661107 0.9996,4.400283 1.60747,6.693293 0.0304,0.14859 0.0473,0.290425 0.0473,0.432261 -0.007,0.759834 -0.43227,1.364324 -1.15833,1.364324 -0.23639,0 -0.51331,-0.06754 -0.81049,-0.212753 -1.39809,-0.928686 -1.78983,-4.714348 -2.12078,-7.453127 -0.003,-0.03377 -0.003,-0.07429 -0.003,-0.118197 0,-0.584228 0.38499,-1.050259 0.86452,-1.134685 0.18574,-0.02364 0.37148,-0.04053 0.55046,-0.04053 m 2.0735,16.46307 c -0.31068,-0.310688 -0.43563,-0.830752 -0.43563,-1.195472 0.003,-0.996227 0.95232,-1.766192 1.8675,-1.766192 0.58423,0.0034 1.28665,0.293802 1.44537,1.063767 0.003,0.03715 0.003,0.07092 0.003,0.104689 0,0.996226 -0.85439,2.137666 -1.87763,2.137666 -0.3242,0 -0.67204,-0.108065 -1.00299,-0.344458 m 121.48902,-4.950741 -0.13171,0.03377 0.13171,-0.03377 z"
         id="path52"
         style="fill:#000000;fill-opacity:1;fill-rule:nonzero;stroke:none" /></g></g></svg>