<svg xmlns="http://www.w3.org/2000/svg" viewBox="-225.243 318.399 107.612 183.298" preserveAspectRatio="xMidYMid meet"><g><path fill="#999" d="M-149.827 492.788h-62.376c-5.357 0-9.717-4.358-9.717-9.717V335.92c0-5.357 4.358-9.717 9.717-9.717h62.376c5.357 0 9.717 4.36 9.717 9.718v147.154c0 5.36-4.358 9.716-9.717 9.716zm-62.376-165.795c-4.92 0-8.924 4.003-8.924 8.924V483.07c0 4.922 4.003 8.927 8.924 8.927h62.376c4.917 0 8.922-4.005 8.922-8.926V335.92c0-4.92-4.005-8.924-8.922-8.924h-62.376zM-181.018 488.237c-3.222 0-5.84-2.623-5.84-5.845 0-3.222 2.617-5.84 5.84-5.84s5.845 2.618 5.845 5.84c0 3.22-2.622 5.845-5.845 5.845zm0-11.295c-3.002 0-5.444 2.442-5.444 5.448s2.442 5.448 5.444 5.448c3.006 0 5.448-2.442 5.448-5.448s-2.443-5.448-5.448-5.448zM-181.018 487.507c-2.82 0-5.115-2.294-5.115-5.117s2.294-5.117 5.115-5.117c2.82 0 5.12 2.294 5.12 5.117s-2.298 5.117-5.12 5.117zm0-9.84c-2.6 0-4.718 2.122-4.718 4.725 0 2.605 2.117 4.72 4.718 4.72 2.605 0 4.724-2.115 4.724-4.72 0-2.603-2.118-4.724-4.724-4.724z"/><circle fill="#999" cx="-192.124" cy="336.516" r="1.223"/><circle fill="#999" cx="-181.115" cy="331.758" r=".992"/><path fill="#999" d="M-175.634 336.468c0 .347-.28.626-.628.626h-9.64c-.344 0-.625-.28-.625-.626 0-.345.28-.626.626-.626h9.638c.346 0 .628.28.628.626zM-144.93 473.71h-72.5V345.085h72.5V473.71zm-71.708-.793h70.914v-127.04h-70.914v127.04zM-222.315 350.646c0 .865.18 1.572.395 1.572.216 0 .395-.707.395-1.572v-3.065c0-.864-.18-1.57-.395-1.57-.216 0-.395.707-.395 1.57v3.066zM-222.315 367.154c0 .865.18 1.572.395 1.572.216 0 .395-.708.395-1.572v-7.158c0-.865-.18-1.572-.395-1.572-.216 0-.395.708-.395 1.572v7.158zM-222.315 380.225c0 .865.18 1.572.395 1.572.216 0 .395-.708.395-1.572v-7.24c0-.865-.18-1.572-.395-1.572-.216 0-.395.708-.395 1.572v7.24z"/></g><g><g fill="#414141"><path d="M-194.54 318.975h1.567c.71 0 1.096.395 1.096 1.056s-.385 1.062-1.096 1.057h-1.09v1.46h-.477v-3.572zm.477 1.712h.93c.536.005.78-.23.78-.656 0-.424-.244-.654-.78-.654h-.93v1.31zM-191.384 319.96h.4v.546h.01c.205-.416.49-.62.95-.605v.45c-.686 0-.936.392-.936 1.047v1.15h-.425v-2.586zM-189.254 319.496h-.425v-.52h.426v.52zm-.425.465h.426v2.588h-.425v-2.587zM-188.334 321.733c.016.38.346.5.696.5.265 0 .626-.06.626-.385 0-.33-.42-.385-.847-.48-.42-.095-.845-.235-.845-.73 0-.522.516-.736.966-.736.572 0 1.027.18 1.063.81h-.426c-.03-.33-.32-.435-.6-.435-.256 0-.552.07-.552.33 0 .306.45.356.847.452.425.094.846.234.846.734 0 .616-.576.816-1.102.816-.58 0-1.07-.235-1.096-.876h.426zM-183.887 321.728c-.115.57-.525.88-1.105.88-.826 0-1.217-.57-1.242-1.36 0-.776.51-1.346 1.217-1.346.916 0 1.196.855 1.17 1.48h-1.936c-.016.45.24.852.806.852.35 0 .596-.17.67-.505h.42zm-.41-.72c-.02-.406-.325-.732-.746-.732-.445 0-.71.335-.74.73h1.486zM-181.57 322.88c0 .46-.244.66-.62.66-.07 0-.145-.005-.22-.02v-.366c.06.01.115.01.176.01.185 0 .24-.09.24-.355v-2.85h.425v2.92zm0-3.384h-.424v-.52h.425v.52zM-178.617 322.54c-.075.044-.17.07-.305.07-.22 0-.36-.12-.36-.4-.235.274-.55.4-.91.4-.472 0-.856-.21-.856-.727 0-.585.435-.71.875-.796.47-.09.87-.06.87-.38 0-.37-.304-.43-.574-.43-.36 0-.626.11-.646.49h-.426c.026-.64.522-.866 1.097-.866.466 0 .972.106.972.71v1.333c0 .2 0 .29.134.29.035 0 .075-.005.13-.025v.33zm-.69-1.328c-.166.12-.486.125-.772.175-.28.05-.52.15-.52.465 0 .28.24.38.5.38.56 0 .79-.35.79-.585v-.435zM-176.468 320.792c-.065-.325-.29-.516-.64-.516-.617 0-.807.486-.807 1.01 0 .477.215.947.756.947.41 0 .656-.24.71-.63h.437c-.095.63-.49 1.006-1.14 1.006-.792 0-1.213-.55-1.213-1.322 0-.776.4-1.386 1.222-1.386.586 0 1.056.275 1.116.89h-.44zM-175.515 318.975h.425v2.117l1.182-1.13h.57l-1.026.94 1.102 1.646h-.54l-.887-1.352-.4.37v.982h-.424v-3.573z"/></g><circle fill="none" stroke="#414141" stroke-width=".5" stroke-miterlimit="10" cx="-202.691" cy="324.546" r="5.302"/><path d="M-202.158 324.38l.878.878-.472.472-.88-.878-.877.878-.47-.472.877-.878-.878-.877.472-.472.877.878.878-.878.472.472-.878.878z"/><g fill="#414141"><path d="M-165.187 480.642h1.296c.314 0 .73 0 .945.13.235.14.42.396.42.745 0 .38-.2.666-.53.8v.012c.44.09.68.42.68.86 0 .524-.374 1.025-1.085 1.025h-1.727v-3.573zm.476 1.536h.95c.54 0 .76-.195.76-.57 0-.496-.35-.565-.76-.565h-.95v1.135zm0 1.637h1.19c.41 0 .67-.25.67-.64 0-.467-.375-.597-.775-.597h-1.086v1.237zM-160.716 481.568c.82 0 1.256.596 1.256 1.356 0 .755-.436 1.35-1.256 1.35-.82 0-1.256-.595-1.256-1.35 0-.76.435-1.356 1.256-1.356zm0 2.332c.445 0 .806-.35.806-.976 0-.63-.36-.98-.806-.98s-.806.35-.806.98c0 .626.36.976.806.976zM-156.82 484.216h-.4v-.41h-.01c-.18.32-.47.47-.84.47-.682 0-.892-.39-.892-.945v-1.7h.426v1.75c0 .316.2.522.525.522.515 0 .765-.346.765-.81v-1.463h.426v2.586zM-155.59 481.628h.515v.376h-.516v1.606c0 .195.054.23.32.23h.194v.375h-.326c-.44 0-.615-.09-.615-.565v-1.646h-.44v-.376h.44v-.775h.426v.775zM-153.49 481.568c.82 0 1.256.596 1.256 1.356 0 .755-.436 1.35-1.256 1.35-.82 0-1.257-.595-1.257-1.35 0-.76.435-1.356 1.257-1.356zm0 2.332c.445 0 .806-.35.806-.976 0-.63-.36-.98-.806-.98s-.806.35-.806.98c0 .626.36.976.806.976zM-151.736 481.628h.4v.41h.01c.18-.32.47-.47.84-.47.682 0 .892.39.892.945v1.702h-.425v-1.752c0-.315-.2-.52-.524-.52-.516 0-.766.345-.766.81v1.462h-.426v-2.587zM-165.187 484.642h.476v1.536h1.88v-1.536h.476v3.573h-.475v-1.637h-1.88v1.637h-.477v-3.573zM-160.53 485.568c.82 0 1.256.596 1.256 1.356 0 .755-.436 1.35-1.256 1.35-.82 0-1.256-.595-1.256-1.35 0-.76.434-1.356 1.256-1.356zm0 2.332c.445 0 .806-.35.806-.976 0-.63-.36-.98-.806-.98s-.806.35-.806.98c0 .626.36.976.806.976zM-158.776 485.628h.4v.38h.01c.19-.29.48-.44.836-.44.315 0 .605.126.71.44.176-.274.48-.44.812-.44.516 0 .86.216.86.75v1.898h-.425v-1.697c0-.32-.085-.576-.5-.576-.41 0-.676.26-.676.66v1.612h-.425v-1.697c0-.336-.105-.576-.485-.576-.506 0-.69.466-.69.66v1.612h-.426v-2.588zM-152.305 487.394c-.115.57-.525.88-1.106.88-.826 0-1.217-.57-1.24-1.36 0-.775.51-1.346 1.215-1.346.916 0 1.196.855 1.17 1.48h-1.936c-.017.45.24.852.805.852.35 0 .596-.17.67-.506h.42zm-.41-.72c-.02-.405-.325-.73-.746-.73-.446 0-.71.335-.74.73h1.485z"/></g><circle fill="none" stroke="#414141" stroke-width=".5" stroke-miterlimit="10" cx="-173.338" cy="485.212" r="5.302"/><path d="M-172.806 485.047l.878.878-.472.473-.88-.88-.877.88-.472-.473.88-.878-.878-.878.472-.473.877.877.88-.878.472.473-.878.877z"/><g fill="#414141"><path d="M-163.54 420.463h2.467v.4h-1.99V422h1.855v.4h-1.856v1.236h2.007v.4h-2.482v-3.573zM-158.8 422.28c-.064-.325-.29-.516-.64-.516-.616 0-.806.486-.806 1.01 0 .477.215.947.756.947.41 0 .655-.24.71-.63h.436c-.095.63-.49 1.006-1.14 1.006-.792 0-1.213-.55-1.213-1.32 0-.776.4-1.387 1.222-1.387.586 0 1.056.274 1.116.89h-.44zM-157.886 421.45h.4v.545h.01c.205-.416.49-.62.95-.606v.45c-.685 0-.936.39-.936 1.046v1.15h-.425v-2.587zM-153.914 424.027c-.075.045-.17.07-.305.07-.22 0-.36-.12-.36-.4-.234.274-.55.4-.91.4-.47 0-.856-.21-.856-.727 0-.585.436-.71.876-.796.47-.09.87-.06.87-.38 0-.37-.305-.43-.574-.43-.36 0-.626.11-.646.49h-.426c.025-.64.52-.866 1.096-.866.466 0 .972.105.972.71v1.332c0 .2 0 .29.135.29.035 0 .075-.005.13-.025v.332zm-.69-1.327c-.165.12-.485.126-.77.176-.28.05-.522.15-.522.465 0 .28.24.382.5.382.56 0 .79-.35.79-.586v-.436zM-153.52 421.45h.4v.41h.01c.18-.32.47-.47.84-.47.68 0 .89.39.89.945v1.702h-.424v-1.752c0-.315-.2-.52-.525-.52-.515 0-.765.345-.765.81v1.462h-.426v-2.588z"/></g><circle fill="none" stroke="#414141" stroke-width=".5" stroke-miterlimit="10" cx="-171.691" cy="422.546" r="5.302"/><path d="M-171.158 422.38l.878.88-.472.47-.88-.877-.877.878-.47-.47.877-.88-.878-.877.472-.472.877.878.878-.877.472.473-.878.877z"/><g fill="#414141"><path d="M-182.028 495.138c-.1-.506-.505-.76-1-.76-.852 0-1.212.7-1.212 1.445 0 .815.36 1.496 1.217 1.496.625 0 .985-.44 1.03-1.03h.476c-.09.89-.646 1.43-1.546 1.43-1.11 0-1.652-.82-1.652-1.86 0-1.037.59-1.883 1.692-1.883.745 0 1.36.4 1.47 1.16h-.475zM-179.884 494.988c.82 0 1.256.596 1.256 1.356 0 .756-.436 1.352-1.256 1.352-.82 0-1.256-.596-1.256-1.352 0-.76.435-1.356 1.256-1.356zm0 2.332c.445 0 .806-.35.806-.976 0-.63-.36-.98-.806-.98s-.806.35-.806.98c0 .626.36.976.806.976zM-178.13 495.05h.4v.41h.01c.18-.32.47-.472.84-.472.682 0 .893.39.893.946v1.7h-.426v-1.75c0-.315-.2-.522-.525-.522-.516 0-.766.346-.766.812v1.46h-.426v-2.585zM-175.35 495.05h.4v.41h.01c.18-.32.47-.472.84-.472.682 0 .892.39.892.946v1.7h-.425v-1.75c0-.315-.2-.522-.525-.522-.516 0-.766.346-.766.812v1.46h-.426v-2.585zM-170.362 496.815c-.115.57-.525.88-1.105.88-.826 0-1.217-.57-1.242-1.36 0-.776.512-1.347 1.218-1.347.916 0 1.196.855 1.17 1.48h-1.936c-.016.45.24.852.806.852.35 0 .596-.17.67-.505h.42zm-.41-.72c-.02-.406-.325-.732-.746-.732-.445 0-.71.336-.74.73h1.486zM-168.128 495.88c-.065-.326-.29-.517-.64-.517-.616 0-.807.486-.807 1.012 0 .476.215.945.756.945.41 0 .656-.24.71-.63h.437c-.095.63-.49 1.006-1.14 1.006-.792 0-1.212-.55-1.212-1.32 0-.777.4-1.388 1.22-1.388.587 0 1.057.275 1.117.89h-.44zM-166.61 495.05h.517v.374h-.516v1.606c0 .195.056.23.32.23h.196v.375h-.325c-.44 0-.615-.09-.615-.565v-1.646h-.44v-.375h.44v-.777h.426v.776zM-163.418 496.815c-.115.57-.525.88-1.106.88-.825 0-1.216-.57-1.24-1.36 0-.776.51-1.347 1.216-1.347.916 0 1.196.855 1.17 1.48h-1.936c-.016.45.24.852.806.852.35 0 .596-.17.67-.505h.42zm-.41-.72c-.02-.406-.325-.732-.746-.732-.445 0-.71.336-.74.73h1.486zM-160.798 497.635h-.4v-.41h-.01c-.18.32-.47.47-.842.47-.68 0-.89-.39-.89-.945v-1.7h.425v1.75c0 .315.2.52.525.52.516 0 .766-.344.766-.81v-1.46h.426v2.585zM-160.175 495.05h.4v.544h.01c.205-.415.49-.62.95-.605v.45c-.685 0-.936.39-.936 1.045v1.15h-.426v-2.586zM-154.793 497.635h-.426v-.35h-.01c-.14.285-.47.41-.825.41-.796 0-1.19-.63-1.19-1.36 0-.732.39-1.348 1.18-1.348.267 0 .647.1.837.405h.01v-1.33h.426v3.573zm-1.2-.315c.57 0 .79-.49.79-.976 0-.51-.23-.98-.816-.98-.58 0-.774.495-.774 1 0 .486.25.956.8.956zM-151.934 496.815c-.115.57-.525.88-1.106.88-.825 0-1.216-.57-1.24-1.36 0-.776.51-1.347 1.216-1.347.916 0 1.196.855 1.17 1.48h-1.936c-.016.45.24.852.806.852.35 0 .596-.17.67-.505h.42zm-.41-.72c-.02-.406-.325-.732-.746-.732-.445 0-.71.336-.74.73h1.486zM-148.31 495.88c-.065-.326-.29-.517-.64-.517-.616 0-.807.486-.807 1.012 0 .476.215.945.756.945.41 0 .654-.24.71-.63h.435c-.095.63-.49 1.006-1.14 1.006-.792 0-1.212-.55-1.212-1.32 0-.777.4-1.388 1.22-1.388.587 0 1.057.275 1.117.89h-.44zM-147.382 494.062h.426v1.366h.01c.14-.31.506-.44.815-.44.68 0 .89.39.89.946v1.7h-.425v-1.75c0-.315-.2-.522-.525-.522-.516 0-.766.346-.766.812v1.46h-.426v-3.572zM-142.31 497.626c-.075.045-.17.07-.305.07-.22 0-.36-.12-.36-.4-.235.275-.55.4-.91.4-.472 0-.856-.21-.856-.726 0-.586.434-.71.874-.796.47-.09.87-.06.87-.38 0-.37-.304-.432-.574-.432-.36 0-.626.11-.646.49h-.426c.025-.64.52-.865 1.096-.865.466 0 .972.105.972.71v1.332c0 .2 0 .29.135.29.036 0 .076-.006.13-.025v.33zm-.69-1.326c-.165.12-.485.125-.77.175-.28.05-.522.15-.522.466 0 .28.24.38.5.38.56 0 .79-.35.79-.584v-.436zM-141.932 495.05h.4v.544h.01c.205-.415.49-.62.95-.605v.45c-.686 0-.936.39-.936 1.045v1.15h-.425v-2.586zM-138.16 497.416c0 .84-.385 1.27-1.2 1.27-.485 0-1.046-.193-1.07-.76h.425c.02.31.39.42.67.42.556 0 .776-.4.776-.98v-.17h-.01c-.14.315-.48.47-.806.47-.77 0-1.156-.604-1.156-1.31 0-.61.3-1.367 1.196-1.367.325 0 .616.145.77.43h.006v-.37h.4v2.366zm-.42-1.126c0-.456-.2-.927-.735-.927-.546 0-.766.446-.766.94 0 .467.17.987.73.987s.77-.515.77-1zM-135.314 496.815c-.115.57-.525.88-1.106.88-.825 0-1.216-.57-1.24-1.36 0-.776.51-1.347 1.216-1.347.916 0 1.196.855 1.17 1.48h-1.936c-.016.45.24.852.806.852.35 0 .596-.17.67-.505h.42zm-.41-.72c-.022-.406-.326-.732-.747-.732-.446 0-.71.336-.74.73h1.485z"/></g><circle fill="none" stroke="#414141" stroke-width=".5" stroke-miterlimit="10" cx="-192.691" cy="496.145" r="5.302"/><path d="M-192.158 495.98l.878.877-.472.473-.88-.88-.877.88-.47-.473.877-.878-.878-.88.472-.47.877.876.878-.878.472.473-.878.88z"/><g fill="#414141"><path d="M-211.54 378.463h1.296c.315 0 .73 0 .946.13.235.14.42.396.42.746 0 .38-.2.665-.53.8v.01c.44.09.68.42.68.86 0 .526-.374 1.027-1.085 1.027h-1.727v-3.574zm.476 1.536h.95c.54 0 .76-.196.76-.57 0-.497-.35-.566-.76-.566h-.95V380zm0 1.636h1.19c.41 0 .67-.25.67-.64 0-.466-.374-.597-.774-.597h-1.086v1.236zM-207.07 379.39c.82 0 1.257.595 1.257 1.355 0 .755-.436 1.35-1.256 1.35-.82 0-1.255-.595-1.255-1.35 0-.76.434-1.356 1.256-1.356zm0 2.33c.446 0 .807-.35.807-.975 0-.63-.36-.98-.806-.98s-.805.35-.805.98c0 .626.36.976.806.976zM-203.173 382.036h-.4v-.41h-.01c-.18.32-.47.47-.842.47-.68 0-.89-.39-.89-.946v-1.702h.425v1.75c0 .316.2.522.525.522.516 0 .766-.345.766-.81v-1.462h.427v2.588zM-201.944 379.45h.516v.374h-.516v1.606c0 .195.055.23.32.23h.195v.375h-.325c-.44 0-.615-.09-.615-.565v-1.646h-.44v-.375h.44v-.777h.426v.776zM-199.844 379.39c.82 0 1.256.595 1.256 1.355 0 .755-.436 1.35-1.256 1.35-.82 0-1.257-.595-1.257-1.35 0-.76.435-1.356 1.256-1.356zm0 2.33c.445 0 .806-.35.806-.975 0-.63-.36-.98-.806-.98s-.806.35-.806.98c0 .626.36.976.806.976zM-198.09 379.45h.4v.41h.01c.18-.32.47-.47.84-.47.682 0 .892.39.892.945v1.702h-.425v-1.752c0-.315-.2-.52-.525-.52-.516 0-.766.345-.766.81v1.46h-.426v-2.586zM-195.05 381.22c.016.38.346.5.696.5.265 0 .626-.06.626-.385 0-.33-.42-.385-.847-.48-.42-.095-.846-.235-.846-.73 0-.522.515-.736.965-.736.57 0 1.026.18 1.062.81h-.426c-.03-.33-.32-.436-.6-.436-.255 0-.55.07-.55.33 0 .306.45.356.846.452.425.095.846.235.846.735 0 .617-.576.817-1.102.817-.58 0-1.07-.235-1.096-.876h.426zM-210.444 388.036h-.455l-.96-2.587h.476l.726 2.156h.01l.706-2.157h.445l-.947 2.586zM-207.994 385.39c.82 0 1.256.595 1.256 1.355 0 .755-.436 1.35-1.256 1.35-.82 0-1.257-.595-1.257-1.35 0-.76.435-1.356 1.256-1.356zm0 2.33c.445 0 .806-.35.806-.975 0-.63-.36-.98-.806-.98s-.806.35-.806.98c0 .626.36.976.806.976zM-206.215 384.463h.425v3.573h-.425v-3.573zM-202.987 388.036h-.4v-.41h-.01c-.18.32-.47.47-.842.47-.68 0-.89-.39-.89-.946v-1.702h.426v1.75c0 .316.2.522.525.522.517 0 .767-.345.767-.81v-1.462h.426v2.588zM-202.35 385.45h.4v.38h.01c.19-.292.48-.44.836-.44.315 0 .605.124.71.44.176-.276.48-.44.812-.44.516 0 .86.214.86.75v1.896h-.425v-1.697c0-.32-.085-.577-.5-.577-.41 0-.676.26-.676.66v1.612h-.426v-1.697c0-.335-.104-.576-.484-.576-.506 0-.69.466-.69.66v1.612h-.426v-2.585zM-195.878 387.216c-.115.57-.525.88-1.105.88-.826 0-1.217-.57-1.242-1.36 0-.776.51-1.346 1.217-1.346.916 0 1.196.855 1.17 1.48h-1.936c-.016.45.24.852.806.852.35 0 .596-.17.67-.505h.42zm-.41-.72c-.02-.406-.325-.732-.746-.732-.445 0-.71.335-.74.73h1.486z"/></g><circle fill="none" stroke="#414141" stroke-width=".5" stroke-miterlimit="10" cx="-219.691" cy="382.546" r="5.302"/><path d="M-219.158 382.38l.878.878-.472.472-.88-.878-.877.878-.47-.472.877-.878-.877-.877.472-.472.877.878.878-.878.472.472-.878.878z"/><g fill="#414141"><path d="M-143.54 350.463h1.296c.315 0 .73 0 .946.13.235.14.42.396.42.746 0 .38-.2.665-.53.8v.01c.44.09.68.42.68.86 0 .526-.374 1.027-1.085 1.027h-1.727v-3.574zm.476 1.536h.95c.54 0 .76-.196.76-.57 0-.497-.35-.566-.76-.566h-.95V352zm0 1.636h1.19c.41 0 .67-.25.67-.64 0-.466-.374-.597-.774-.597h-1.086v1.236zM-137.894 354.027c-.075.045-.17.07-.305.07-.22 0-.36-.12-.36-.4-.234.275-.55.4-.91.4-.47 0-.855-.21-.855-.726 0-.584.435-.71.875-.795.47-.09.87-.06.87-.38 0-.37-.304-.43-.574-.43-.36 0-.626.11-.646.49h-.426c.025-.64.52-.866 1.096-.866.466 0 .972.104.972.71v1.33c0 .2 0 .29.135.29.035 0 .075-.004.13-.024v.33zm-.69-1.327c-.165.12-.485.125-.77.175-.28.05-.522.15-.522.465 0 .28.24.38.5.38.56 0 .79-.35.79-.585v-.435zM-136.91 351.45h.516v.374h-.516v1.606c0 .195.055.23.32.23h.195v.375h-.325c-.44 0-.616-.09-.616-.565v-1.646h-.44v-.375h.44v-.777h.426v.776zM-135.335 351.45h.516v.374h-.515v1.606c0 .195.055.23.32.23h.195v.375h-.326c-.44 0-.615-.09-.615-.565v-1.646h-.44v-.375h.44v-.777h.425v.776zM-132.144 353.216c-.115.57-.525.88-1.105.88-.825 0-1.216-.57-1.24-1.36 0-.776.51-1.346 1.216-1.346.916 0 1.196.855 1.17 1.48h-1.936c-.016.45.24.852.806.852.35 0 .596-.17.67-.505h.42zm-.41-.72c-.02-.406-.325-.732-.746-.732-.445 0-.71.335-.74.73h1.486zM-131.68 351.45h.4v.544h.01c.204-.416.49-.62.95-.605v.45c-.686 0-.937.39-.937 1.045v1.15h-.425v-2.586zM-129.55 350.984h-.426v-.52h.425v.52zm-.426.465h.425v2.586h-.426v-2.587zM-126.684 353.216c-.115.57-.525.88-1.106.88-.825 0-1.216-.57-1.24-1.36 0-.776.51-1.346 1.216-1.346.916 0 1.196.855 1.17 1.48h-1.936c-.016.45.24.852.806.852.35 0 .596-.17.67-.505h.42zm-.41-.72c-.02-.406-.325-.732-.746-.732-.445 0-.71.335-.74.73h1.486z"/></g><circle fill="none" stroke="#414141" stroke-width=".5" stroke-miterlimit="10" cx="-151.691" cy="352.546" r="5.302"/><path d="M-151.158 352.38l.878.878-.472.472-.88-.878-.877.878-.47-.472.877-.878-.878-.877.472-.472.877.878.878-.878.472.472-.878.878z"/><g fill="#414141"><path d="M-197.035 340.54c-.1-.506-.505-.762-1-.762-.852 0-1.212.7-1.212 1.447 0 .815.36 1.496 1.217 1.496.625 0 .985-.44 1.03-1.03h.476c-.09.89-.646 1.43-1.546 1.43-1.11 0-1.652-.82-1.652-1.86 0-1.037.59-1.883 1.692-1.883.745 0 1.36.4 1.47 1.16h-.475zM-193.715 343.027c-.075.045-.17.07-.305.07-.22 0-.36-.12-.36-.4-.235.275-.55.4-.91.4-.472 0-.856-.21-.856-.726 0-.584.435-.71.875-.795.47-.09.87-.06.87-.38 0-.37-.305-.43-.575-.43-.36 0-.626.11-.646.49h-.427c.025-.64.52-.866 1.096-.866.465 0 .97.104.97.71v1.33c0 .2 0 .29.136.29.035 0 .075-.004.13-.024v.33zm-.69-1.327c-.165.12-.485.125-.77.175-.28.05-.522.15-.522.465 0 .28.24.38.5.38.56 0 .79-.35.79-.585v-.435zM-193.322 340.45h.4v.38h.01c.19-.292.48-.44.836-.44.315 0 .605.124.71.44.176-.276.48-.44.812-.44.516 0 .86.214.86.75v1.896h-.425v-1.697c0-.32-.084-.577-.5-.577-.41 0-.675.26-.675.66v1.612h-.426v-1.697c0-.335-.106-.576-.486-.576-.506 0-.69.466-.69.66v1.612h-.426v-2.585zM-186.85 342.216c-.116.57-.526.88-1.107.88-.825 0-1.216-.57-1.24-1.36 0-.776.51-1.346 1.216-1.346.915 0 1.195.855 1.17 1.48h-1.937c-.016.45.24.852.806.852.35 0 .595-.17.67-.505h.42zm-.41-.72c-.022-.406-.326-.732-.747-.732-.445 0-.71.335-.74.73h1.486zm-.646-2.118h.545l-.656.716h-.32l.43-.716zM-186.388 340.45h.4v.544h.01c.205-.416.49-.62.95-.605v.45c-.686 0-.936.39-.936 1.045v1.15h-.425v-2.586zM-182.416 343.027c-.075.045-.17.07-.305.07-.222 0-.36-.12-.36-.4-.236.275-.552.4-.912.4-.47 0-.855-.21-.855-.726 0-.584.435-.71.875-.795.47-.09.87-.06.87-.38 0-.37-.304-.43-.574-.43-.36 0-.626.11-.646.49h-.426c.025-.64.52-.866 1.096-.866.466 0 .972.104.972.71v1.33c0 .2 0 .29.135.29.035 0 .075-.004.13-.024v.33zm-.69-1.327c-.165.12-.485.125-.77.175-.28.05-.522.15-.522.465 0 .28.24.38.5.38.56 0 .79-.35.79-.585v-.435z"/></g><circle fill="none" stroke="#414141" stroke-width=".5" stroke-miterlimit="10" cx="-207.698" cy="341.546" r="5.302"/><path d="M-207.165 341.38l.878.878-.472.472-.878-.878-.878.878-.472-.472.878-.878-.877-.877.472-.472.877.878.88-.878.47.472-.877.878z"/><g fill="#414141"><path d="M-133.54 384.063h1.296c.315 0 .73 0 .946.13.235.14.42.396.42.746 0 .38-.2.665-.53.8v.01c.44.09.68.42.68.86 0 .526-.374 1.027-1.085 1.027h-1.727v-3.574zm.476 1.536h.95c.54 0 .76-.196.76-.57 0-.497-.35-.566-.76-.566h-.95v1.135zm0 1.636h1.19c.41 0 .67-.25.67-.64 0-.466-.374-.597-.774-.597h-1.086v1.236zM-129.07 384.99c.82 0 1.257.595 1.257 1.355 0 .755-.436 1.35-1.256 1.35-.82 0-1.255-.595-1.255-1.35 0-.76.434-1.356 1.256-1.356zm0 2.33c.446 0 .807-.35.807-.975 0-.63-.36-.98-.806-.98s-.805.35-.805.98c0 .625.36.976.806.976zM-125.173 387.636h-.4v-.41h-.01c-.18.32-.47.47-.842.47-.68 0-.89-.39-.89-.946v-1.702h.425v1.75c0 .316.2.522.525.522.516 0 .766-.345.766-.81v-1.462h.427v2.588zM-123.944 385.05h.516v.374h-.516v1.606c0 .195.055.23.32.23h.195v.375h-.325c-.44 0-.615-.09-.615-.565v-1.646h-.44v-.375h.44v-.777h.426v.776zM-121.844 384.99c.82 0 1.256.595 1.256 1.355 0 .755-.436 1.35-1.256 1.35-.82 0-1.257-.595-1.257-1.35 0-.76.435-1.356 1.256-1.356zm0 2.33c.445 0 .806-.35.806-.975 0-.63-.36-.98-.806-.98s-.806.35-.806.98c0 .625.36.976.806.976zM-120.09 385.05h.4v.41h.01c.18-.32.47-.47.84-.47.682 0 .892.39.892.945v1.702h-.425v-1.752c0-.315-.2-.52-.525-.52-.516 0-.766.345-.766.81v1.46h-.426v-2.586zM-132.494 390.99c.82 0 1.256.595 1.256 1.355 0 .755-.436 1.35-1.256 1.35-.82 0-1.257-.595-1.257-1.35 0-.76.435-1.356 1.256-1.356zm0 2.33c.445 0 .806-.35.806-.975 0-.63-.36-.98-.806-.98s-.806.35-.806.98c0 .625.36.976.806.976zM-130.74 391.05h.4v.41h.01c.18-.32.47-.47.84-.47.682 0 .892.39.892.945v1.702h-.425v-1.752c0-.315-.2-.52-.525-.52-.516 0-.766.345-.766.81v1.46h-.426v-2.586zM-126.89 389.977h.366l-1.48 3.744h-.366l1.48-3.743zM-125.18 390.99c.82 0 1.257.595 1.257 1.355 0 .755-.436 1.35-1.256 1.35-.82 0-1.255-.595-1.255-1.35 0-.76.435-1.356 1.256-1.356zm0 2.33c.446 0 .807-.35.807-.975 0-.63-.36-.98-.806-.98s-.805.35-.805.98c0 .625.36.976.806.976zM-123.25 391.424h-.435v-.375h.435v-.386c0-.42.25-.64.716-.64.08 0 .195.014.275.04v.37c-.074-.026-.164-.036-.24-.036-.204 0-.324.065-.324.29v.36h.5v.376h-.5v2.212h-.426v-2.212zM-121.86 391.424h-.436v-.375h.436v-.386c0-.42.25-.64.716-.64.08 0 .195.014.275.04v.37c-.074-.026-.164-.036-.24-.036-.204 0-.324.065-.324.29v.36h.5v.376h-.5v2.212h-.426v-2.212z"/></g><circle fill="none" stroke="#414141" stroke-width=".5" stroke-miterlimit="10" cx="-141.691" cy="386.145" r="5.302"/><path d="M-141.158 385.98l.878.877-.472.472-.88-.88-.877.88-.47-.473.877-.878-.878-.878.472-.472.877.877.878-.878.472.47-.878.88z"/><g fill="#414141"><path d="M-203.53 479.062h.65l1.126 3.003 1.132-3.003h.65v3.573h-.45v-2.973h-.01l-1.116 2.973h-.406l-1.115-2.973h-.01v2.973h-.45v-3.573zM-198.806 479.583h-.425v-.52h.424v.52zm-.424.466h.425v2.586h-.425v-2.587zM-196.39 480.88c-.064-.326-.29-.517-.64-.517-.616 0-.806.486-.806 1.012 0 .476.215.945.756.945.41 0 .655-.24.71-.63h.436c-.095.63-.49 1.006-1.14 1.006-.792 0-1.213-.55-1.213-1.32 0-.777.4-1.388 1.222-1.388.586 0 1.056.275 1.116.89h-.44zM-195.476 480.05h.4v.544h.01c.205-.415.49-.62.95-.605v.45c-.685 0-.936.39-.936 1.045v1.15h-.425v-2.586zM-192.77 479.988c.82 0 1.256.596 1.256 1.356 0 .756-.436 1.352-1.256 1.352-.82 0-1.257-.596-1.257-1.352 0-.76.436-1.356 1.257-1.356zm0 2.332c.445 0 .806-.35.806-.976 0-.63-.36-.98-.806-.98s-.806.35-.806.98c0 .626.36.976.806.976z"/></g><circle fill="none" stroke="#414141" stroke-width=".5" stroke-miterlimit="10" cx="-211.691" cy="481.145" r="5.302"/><path d="M-211.158 480.98l.878.877-.472.473-.88-.88-.877.88-.47-.473.877-.878-.877-.88.472-.47.877.876.878-.878.472.473-.878.88z"/></g></svg>
