<svg xmlns="http://www.w3.org/2000/svg" width="42.2" height="63.4" viewBox="0 0 42.2 63.4" preserveAspectRatio="xMidYMid meet"><path d="M35.6 1.2C38 1.2 40 3.1 40 5.5c0 .8-.7 2.6-1.1 3.2l-.4 14.4c-.1 7.9-.2 22-.2 22s-.2 3.5 1.2 5.1c1.9 2.3 1.8 5.1 1.8 5.1s.1 3.3-1 4.8c-.1-1.7-.3-4.4-1-5.4h-.4c-.4 0-1.3 0-2.1.2-1.2.2-2.3 1.3-2.3 1.3s-.8 4 .2 6.1c-4.6-3.3-4-8.6-1.7-11.3 0 0 1.5-1.7 1.6-5.4.1-3.7.7-24.7.7-24.7 0-10.4-2.1-10.4-3.6-13.7-.2-.5-.4-1.1-.4-1.7 0-2.4 1.9-4.3 4.3-4.3m0-1.2c-3 0-5.6 2.4-5.6 5.5 0 .7.1 1.5.4 2.1v.1c.4.8.8 1.5 1.2 2.1 1.2 1.8 2.3 3.5 2.3 11.1l-.7 24.7c-.1 3.2-1.3 4.7-1.3 4.7-1.5 1.9-2.2 4.3-1.9 6.7.2 1.7 1 4.2 3.7 6.2.2.1.4.2.7.2.3 0 .5-.1.7-.3.4-.4.5-1 .3-1.4-.6-1.1-.4-3.4-.1-4.9.4-.3 1-.6 1.5-.7.5-.1 1.1-.1 1.5-.1.3 1 .4 2.9.5 3.8l.1.5c.1.5.4.9.8 1l.3.1c.4 0 .7-.1 1-.4 1.3-1.8 1.3-5 1.3-5.5 0-.4 0-3.4-2.1-5.9-.9-1.1-1-3.5-.9-4.3v-.1l.2-22 .4-14.1c.5-.8 1.1-2.5 1.1-3.5.2-3.2-2.3-5.6-5.4-5.6zm0 3.3c.8 0 2.2 1.4 2.2 2.2s-1.5 2.2-2.2 2.2c-.7 0-2.2-1.4-2.2-2.2s1.3-2.2 2.2-2.2m0-1.2c-1.5 0-3.4 1.9-3.4 3.4 0 1.4 2 3.4 3.4 3.4s3.4-2 3.4-3.4-2-3.4-3.4-3.4zM6.2 63.3c-5.1 0-6.2-2.1-6.2-3.8V45.3c0-3 .6-4.4 1-5.6.4-1.1.8-1.9.4-3.9-.1-.3-.5-1.6-.1-2.4.2-.4.5-.7 1-.9l1.3-.5V8.7l-.5-1.9c0-.1-.1-.1 0-.2l.5-6c0-.3.3-.5.6-.5h4.1c.3 0 .6.2.6.5l.5 6v.2l-.7 1.9V32l1.3.5c.4.1.8.4 1 .9.4 1 .1 2.1-.1 2.4-.4 2 0 2.8.4 3.9s1 2.6 1 5.6v14.2c.1 1.8-1 3.8-6.1 3.8zm-2-56.8l.7 1.9v23.9c0 .2-.1.4-.4.5l-1.7.7c-.2.1-.3.1-.4.3-.2.4 0 1.3.1 1.6v.1c.4 2.4 0 3.4-.5 4.6-.4 1.1-1 2.4-1 5.2v14.2c0 1.7 1.7 2.6 5 2.6s5-.9 5-2.6V45.3c0-2.8-.5-4.1-1-5.2-.5-1.2-1-2.3-.5-4.6v-.1c.1-.3.4-1.1.1-1.6-.1-.1-.1-.2-.4-.3l-1.7-.7c-.2-.1-.4-.3-.4-.5V8.4l.7-1.9-.1-5.3h-3l-.5 5.3zm2 51.9c-1.3 0-2.3-1.7-2.3-3.9s1-3.9 2.3-3.9 2.3 1.7 2.3 3.9-.9 3.9-2.3 3.9zm0-6.8c-.4 0-1.1 1.1-1.1 2.7S5.8 57 6.2 57s1.1-1.1 1.1-2.7-.6-2.7-1.1-2.7zm4.1-15.5c-.1 0-.1 0-.2-.1-3.9-1.7-7.8 0-7.9 0-.3.1-.7 0-.7-.3-.1-.3 0-.7.3-.8.1-.1 4.4-1.9 8.7 0 .3.1.4.4.3.7-.1.3-.3.5-.5.5zm-.2 2.8c-.1 0-.1 0-.2-.1-3.6-1.7-7.3 0-7.3 0-.3.1-.7 0-.8-.3-.1-.3 0-.7.3-.8.1-.1 4.2-1.9 8.4 0 .3.1.4.5.3.8-.3.2-.5.4-.7.4z" fill="#414141"/></svg>
